<mxfile host="Electron" modified="2023-11-28T20:00:04.188Z" agent="Mozilla/5.0 (Windows NT 10.0; Win64; x64) AppleWebKit/537.36 (KHTML, like Gecko) draw.io/22.0.2 Chrome/114.0.5735.289 Electron/25.8.4 Safari/537.36" etag="iMt9riFMyKKqumIkYHBQ" version="22.0.2" type="device" pages="2">
  <diagram name="Сторінка-1" id="3sRxF70xnHxOXk9o4JD_">
    <mxGraphModel dx="1036" dy="606" grid="1" gridSize="10" guides="1" tooltips="1" connect="1" arrows="1" fold="1" page="0" pageScale="1" pageWidth="827" pageHeight="1169" math="0" shadow="0">
      <root>
        <mxCell id="0" />
        <mxCell id="1" parent="0" />
        <mxCell id="i477NKLpf4deWkab18T_-1" value="&lt;b&gt;Сценарій використання&lt;br&gt;&lt;/b&gt;&lt;br&gt;1. Вхід&lt;br&gt;1.1 Введення логіна та паролю і вхід&lt;br&gt;1.2 Перехід на сторінку реєстрації&lt;br&gt;1.2.1 Введення логіна та паролю&lt;br&gt;1.2.2 Обирання плану підписки&lt;br&gt;1.2.3 Введення особистих даних&lt;br&gt;&lt;br&gt;2. Вкладка &quot;Католог&quot;&lt;br&gt;2.1 Натиснення на &quot;Пошук&quot;&lt;br&gt;2.1.1 Введення пошукового запиту&lt;br&gt;2.1.2 Виведення списку результатів&lt;br&gt;2.1.3 Натиснення на кнжку (3 пункт)&lt;br&gt;&lt;br&gt;2.2 Перегляд списку &quot;Рекомендоване&quot;&lt;br&gt;2.2.1 Натиснення на кнжку (3 пункт)&lt;br&gt;&lt;br&gt;2.3 Перегляд списку &quot;Жанри&quot;&lt;br&gt;2.3.1 Натиснення на певний жанр&lt;br&gt;2.3.2 Відкриття сторінки і завантаження списку за жанром&lt;br&gt;2.3.3 Натиснення на кнжку (3 пункт)&lt;br&gt;&lt;br&gt;3. Відкриття сторінки книжки&lt;br&gt;3.1 Перегляд інформації&lt;br&gt;3.2 Натиснути &quot;Читати&quot;&lt;br&gt;3.3 Перехід на сторінку замовлення, де підтвердити замовлення книги (після з&#39;явиться повідомлення, що вся інша інформація буде надслена на ном. телефону)&lt;br&gt;&lt;br&gt;4. Вкладка &quot;Читаю&quot;&lt;br&gt;4.1 Перегляд список книг, які читаєш (відоб. дата оренди)&lt;br&gt;4.2 Натиснути на кнопку &quot;Повернути&quot;&amp;nbsp;&lt;br&gt;4.3 Перехід на сторінку підтвердження,&amp;nbsp;&amp;nbsp;де підтвердити повернення книги (після з&#39;явиться повідомлення, що вся інша інформація буде надслена на ном. телефону)&lt;br&gt;&lt;br&gt;5. Вкладка &quot;Налаштування&quot;&lt;br&gt;5.1 Змінити дані акаунта&lt;br&gt;5.2 Змінити параметри програми (мова, тема)&lt;br&gt;5.3 Вийти з акануту" style="shape=note;whiteSpace=wrap;html=1;backgroundOutline=1;darkOpacity=0.05;size=14;align=left;verticalAlign=top;spacing=10;" parent="1" vertex="1">
          <mxGeometry x="40" y="40" width="400" height="620" as="geometry" />
        </mxCell>
      </root>
    </mxGraphModel>
  </diagram>
  <diagram id="tpci2p4QjuyGAM6brwMl" name="Сторінка-2">
    <mxGraphModel dx="814" dy="642" grid="1" gridSize="10" guides="1" tooltips="1" connect="1" arrows="1" fold="1" page="0" pageScale="1" pageWidth="827" pageHeight="1169" math="0" shadow="0">
      <root>
        <mxCell id="0" />
        <mxCell id="1" parent="0" />
        <mxCell id="hYjQ5hJqqC87UYRuwTi9-1" value="" style="group" parent="1" vertex="1" connectable="0">
          <mxGeometry x="480" y="420" width="120" height="60" as="geometry" />
        </mxCell>
        <mxCell id="hYjQ5hJqqC87UYRuwTi9-2" value="MainActivity" style="rounded=0;whiteSpace=wrap;html=1;fontStyle=1" parent="hYjQ5hJqqC87UYRuwTi9-1" vertex="1">
          <mxGeometry width="120" height="20" as="geometry" />
        </mxCell>
        <mxCell id="hYjQ5hJqqC87UYRuwTi9-3" value="FragmentContainer&lt;br&gt;MenuBar" style="rounded=0;whiteSpace=wrap;html=1;align=left;" parent="hYjQ5hJqqC87UYRuwTi9-1" vertex="1">
          <mxGeometry y="20" width="120" height="40" as="geometry" />
        </mxCell>
        <mxCell id="hYjQ5hJqqC87UYRuwTi9-4" value="" style="group" parent="1" vertex="1" connectable="0">
          <mxGeometry x="320" y="320" width="120" height="70" as="geometry" />
        </mxCell>
        <mxCell id="hYjQ5hJqqC87UYRuwTi9-5" value="CatalogFragment" style="rounded=0;whiteSpace=wrap;html=1;" parent="hYjQ5hJqqC87UYRuwTi9-4" vertex="1">
          <mxGeometry width="120" height="20" as="geometry" />
        </mxCell>
        <mxCell id="hYjQ5hJqqC87UYRuwTi9-6" value="SearchField&lt;br&gt;RecomendBookList&lt;br&gt;CategoryList" style="rounded=0;whiteSpace=wrap;html=1;align=left;" parent="hYjQ5hJqqC87UYRuwTi9-4" vertex="1">
          <mxGeometry y="20" width="120" height="50" as="geometry" />
        </mxCell>
        <mxCell id="hYjQ5hJqqC87UYRuwTi9-7" value="" style="group" parent="1" vertex="1" connectable="0">
          <mxGeometry x="480" y="320" width="120" height="40" as="geometry" />
        </mxCell>
        <mxCell id="hYjQ5hJqqC87UYRuwTi9-8" value="MyBooksFragment" style="rounded=0;whiteSpace=wrap;html=1;" parent="hYjQ5hJqqC87UYRuwTi9-7" vertex="1">
          <mxGeometry width="120" height="20" as="geometry" />
        </mxCell>
        <mxCell id="hYjQ5hJqqC87UYRuwTi9-9" value="BookList" style="rounded=0;whiteSpace=wrap;html=1;align=left;" parent="hYjQ5hJqqC87UYRuwTi9-7" vertex="1">
          <mxGeometry y="20" width="120" height="20" as="geometry" />
        </mxCell>
        <mxCell id="hYjQ5hJqqC87UYRuwTi9-10" value="" style="group" parent="1" vertex="1" connectable="0">
          <mxGeometry x="640" y="320" width="120" height="60" as="geometry" />
        </mxCell>
        <mxCell id="hYjQ5hJqqC87UYRuwTi9-11" value="SettingsFragment" style="rounded=0;whiteSpace=wrap;html=1;" parent="hYjQ5hJqqC87UYRuwTi9-10" vertex="1">
          <mxGeometry width="120" height="20" as="geometry" />
        </mxCell>
        <mxCell id="hYjQ5hJqqC87UYRuwTi9-12" value="DataList&lt;br&gt;SetUpList" style="rounded=0;whiteSpace=wrap;html=1;align=left;" parent="hYjQ5hJqqC87UYRuwTi9-10" vertex="1">
          <mxGeometry y="20" width="120" height="40" as="geometry" />
        </mxCell>
        <mxCell id="hYjQ5hJqqC87UYRuwTi9-13" value="" style="group" parent="1" vertex="1" connectable="0">
          <mxGeometry x="320" y="200" width="120" height="80" as="geometry" />
        </mxCell>
        <mxCell id="hYjQ5hJqqC87UYRuwTi9-14" value="CatalogViewModel" style="rounded=0;whiteSpace=wrap;html=1;" parent="hYjQ5hJqqC87UYRuwTi9-13" vertex="1">
          <mxGeometry width="120" height="20" as="geometry" />
        </mxCell>
        <mxCell id="hYjQ5hJqqC87UYRuwTi9-15" value="RecomendBookList&lt;br style=&quot;&quot;&gt;&lt;span style=&quot;&quot;&gt;CategoryList&lt;br&gt;&lt;/span&gt;" style="rounded=0;whiteSpace=wrap;html=1;align=left;" parent="hYjQ5hJqqC87UYRuwTi9-13" vertex="1">
          <mxGeometry y="20" width="120" height="40" as="geometry" />
        </mxCell>
        <mxCell id="hYjQ5hJqqC87UYRuwTi9-16" value="LoadData()" style="rounded=0;whiteSpace=wrap;html=1;align=left;" parent="hYjQ5hJqqC87UYRuwTi9-13" vertex="1">
          <mxGeometry y="60" width="120" height="20" as="geometry" />
        </mxCell>
        <mxCell id="hYjQ5hJqqC87UYRuwTi9-17" value="" style="group" parent="1" vertex="1" connectable="0">
          <mxGeometry x="480" y="200" width="120" height="90" as="geometry" />
        </mxCell>
        <mxCell id="hYjQ5hJqqC87UYRuwTi9-18" value="MyBooksViewModel" style="rounded=0;whiteSpace=wrap;html=1;" parent="hYjQ5hJqqC87UYRuwTi9-17" vertex="1">
          <mxGeometry width="120" height="20" as="geometry" />
        </mxCell>
        <mxCell id="hYjQ5hJqqC87UYRuwTi9-19" value="BookList" style="rounded=0;whiteSpace=wrap;html=1;align=left;" parent="hYjQ5hJqqC87UYRuwTi9-17" vertex="1">
          <mxGeometry y="20" width="120" height="20" as="geometry" />
        </mxCell>
        <mxCell id="hYjQ5hJqqC87UYRuwTi9-20" value="LoadData()&lt;br&gt;RemoveItem()&lt;br&gt;AddItem()" style="rounded=0;whiteSpace=wrap;html=1;align=left;" parent="hYjQ5hJqqC87UYRuwTi9-17" vertex="1">
          <mxGeometry y="40" width="120" height="50" as="geometry" />
        </mxCell>
        <mxCell id="hYjQ5hJqqC87UYRuwTi9-21" value="" style="group" parent="1" vertex="1" connectable="0">
          <mxGeometry x="640" y="200" width="120" height="80" as="geometry" />
        </mxCell>
        <mxCell id="hYjQ5hJqqC87UYRuwTi9-22" value="SettingViewModel" style="rounded=0;whiteSpace=wrap;html=1;" parent="hYjQ5hJqqC87UYRuwTi9-21" vertex="1">
          <mxGeometry width="120" height="20" as="geometry" />
        </mxCell>
        <mxCell id="hYjQ5hJqqC87UYRuwTi9-23" value="DataList" style="rounded=0;whiteSpace=wrap;html=1;align=left;" parent="hYjQ5hJqqC87UYRuwTi9-21" vertex="1">
          <mxGeometry y="20" width="120" height="20" as="geometry" />
        </mxCell>
        <mxCell id="hYjQ5hJqqC87UYRuwTi9-24" value="LoadData()&lt;br&gt;LogOut()" style="rounded=0;whiteSpace=wrap;html=1;align=left;" parent="hYjQ5hJqqC87UYRuwTi9-21" vertex="1">
          <mxGeometry y="40" width="120" height="40" as="geometry" />
        </mxCell>
        <mxCell id="hYjQ5hJqqC87UYRuwTi9-25" style="edgeStyle=orthogonalEdgeStyle;rounded=0;orthogonalLoop=1;jettySize=auto;html=1;entryX=0.5;entryY=1;entryDx=0;entryDy=0;endArrow=none;endFill=0;startArrow=diamond;startFill=1;" parent="1" source="hYjQ5hJqqC87UYRuwTi9-2" target="hYjQ5hJqqC87UYRuwTi9-6" edge="1">
          <mxGeometry relative="1" as="geometry">
            <Array as="points">
              <mxPoint x="540" y="400" />
              <mxPoint x="380" y="400" />
            </Array>
          </mxGeometry>
        </mxCell>
        <mxCell id="hYjQ5hJqqC87UYRuwTi9-26" style="edgeStyle=orthogonalEdgeStyle;rounded=0;orthogonalLoop=1;jettySize=auto;html=1;entryX=0.5;entryY=1;entryDx=0;entryDy=0;endArrow=none;endFill=0;startArrow=diamond;startFill=1;" parent="1" source="hYjQ5hJqqC87UYRuwTi9-2" target="hYjQ5hJqqC87UYRuwTi9-9" edge="1">
          <mxGeometry relative="1" as="geometry" />
        </mxCell>
        <mxCell id="hYjQ5hJqqC87UYRuwTi9-27" style="edgeStyle=orthogonalEdgeStyle;rounded=0;orthogonalLoop=1;jettySize=auto;html=1;entryX=0.5;entryY=1;entryDx=0;entryDy=0;startArrow=diamond;startFill=1;endArrow=none;endFill=0;" parent="1" source="hYjQ5hJqqC87UYRuwTi9-2" target="hYjQ5hJqqC87UYRuwTi9-12" edge="1">
          <mxGeometry relative="1" as="geometry">
            <Array as="points">
              <mxPoint x="540" y="400" />
              <mxPoint x="700" y="400" />
            </Array>
          </mxGeometry>
        </mxCell>
        <mxCell id="hYjQ5hJqqC87UYRuwTi9-28" style="edgeStyle=orthogonalEdgeStyle;rounded=0;orthogonalLoop=1;jettySize=auto;html=1;entryX=0.5;entryY=1;entryDx=0;entryDy=0;endArrow=none;endFill=0;" parent="1" source="hYjQ5hJqqC87UYRuwTi9-5" target="hYjQ5hJqqC87UYRuwTi9-16" edge="1">
          <mxGeometry relative="1" as="geometry" />
        </mxCell>
        <mxCell id="hYjQ5hJqqC87UYRuwTi9-29" style="edgeStyle=orthogonalEdgeStyle;rounded=0;orthogonalLoop=1;jettySize=auto;html=1;entryX=0.5;entryY=1;entryDx=0;entryDy=0;endArrow=none;endFill=0;" parent="1" source="hYjQ5hJqqC87UYRuwTi9-8" target="hYjQ5hJqqC87UYRuwTi9-20" edge="1">
          <mxGeometry relative="1" as="geometry" />
        </mxCell>
        <mxCell id="hYjQ5hJqqC87UYRuwTi9-30" style="edgeStyle=orthogonalEdgeStyle;rounded=0;orthogonalLoop=1;jettySize=auto;html=1;entryX=0.5;entryY=1;entryDx=0;entryDy=0;endArrow=none;endFill=0;" parent="1" source="hYjQ5hJqqC87UYRuwTi9-11" target="hYjQ5hJqqC87UYRuwTi9-24" edge="1">
          <mxGeometry relative="1" as="geometry" />
        </mxCell>
        <mxCell id="tN0UlOiubW_9Mp4sJorS-4" value="" style="group" parent="1" vertex="1" connectable="0">
          <mxGeometry x="160" y="320" width="120" height="60" as="geometry" />
        </mxCell>
        <mxCell id="tN0UlOiubW_9Mp4sJorS-2" value="SearchActivity" style="rounded=0;whiteSpace=wrap;html=1;" parent="tN0UlOiubW_9Mp4sJorS-4" vertex="1">
          <mxGeometry width="120" height="20" as="geometry" />
        </mxCell>
        <mxCell id="tN0UlOiubW_9Mp4sJorS-3" value="SearchText&lt;br&gt;SeachList" style="rounded=0;whiteSpace=wrap;html=1;align=left;" parent="tN0UlOiubW_9Mp4sJorS-4" vertex="1">
          <mxGeometry y="20" width="120" height="40" as="geometry" />
        </mxCell>
        <mxCell id="tN0UlOiubW_9Mp4sJorS-8" value="" style="group;align=left;" parent="1" vertex="1" connectable="0">
          <mxGeometry x="160" y="220" width="120" height="60" as="geometry" />
        </mxCell>
        <mxCell id="tN0UlOiubW_9Mp4sJorS-5" value="SearchViewModel" style="rounded=0;whiteSpace=wrap;html=1;" parent="tN0UlOiubW_9Mp4sJorS-8" vertex="1">
          <mxGeometry width="120" height="20" as="geometry" />
        </mxCell>
        <mxCell id="tN0UlOiubW_9Mp4sJorS-6" value="list" style="rounded=0;whiteSpace=wrap;html=1;align=left;" parent="tN0UlOiubW_9Mp4sJorS-8" vertex="1">
          <mxGeometry y="20" width="120" height="20" as="geometry" />
        </mxCell>
        <mxCell id="tN0UlOiubW_9Mp4sJorS-7" value="loadData()" style="rounded=0;whiteSpace=wrap;html=1;align=left;" parent="tN0UlOiubW_9Mp4sJorS-8" vertex="1">
          <mxGeometry y="40" width="120" height="20" as="geometry" />
        </mxCell>
        <mxCell id="tN0UlOiubW_9Mp4sJorS-9" style="edgeStyle=orthogonalEdgeStyle;rounded=0;orthogonalLoop=1;jettySize=auto;html=1;entryX=1;entryY=0.5;entryDx=0;entryDy=0;startArrow=none;startFill=0;" parent="1" source="hYjQ5hJqqC87UYRuwTi9-6" target="tN0UlOiubW_9Mp4sJorS-3" edge="1">
          <mxGeometry relative="1" as="geometry">
            <Array as="points">
              <mxPoint x="310" y="360" />
              <mxPoint x="310" y="360" />
            </Array>
          </mxGeometry>
        </mxCell>
        <mxCell id="tN0UlOiubW_9Mp4sJorS-10" style="edgeStyle=orthogonalEdgeStyle;rounded=0;orthogonalLoop=1;jettySize=auto;html=1;entryX=0.5;entryY=1;entryDx=0;entryDy=0;endArrow=none;endFill=0;" parent="1" source="tN0UlOiubW_9Mp4sJorS-2" target="tN0UlOiubW_9Mp4sJorS-7" edge="1">
          <mxGeometry relative="1" as="geometry" />
        </mxCell>
        <mxCell id="tN0UlOiubW_9Mp4sJorS-15" value="" style="group" parent="1" vertex="1" connectable="0">
          <mxGeometry x="230" y="430" width="120" height="60" as="geometry" />
        </mxCell>
        <mxCell id="tN0UlOiubW_9Mp4sJorS-12" value="BookAdapter" style="rounded=0;whiteSpace=wrap;html=1;" parent="tN0UlOiubW_9Mp4sJorS-15" vertex="1">
          <mxGeometry width="120" height="20" as="geometry" />
        </mxCell>
        <mxCell id="tN0UlOiubW_9Mp4sJorS-13" value="list" style="rounded=0;whiteSpace=wrap;html=1;align=left;" parent="tN0UlOiubW_9Mp4sJorS-15" vertex="1">
          <mxGeometry y="20" width="120" height="20" as="geometry" />
        </mxCell>
        <mxCell id="tN0UlOiubW_9Mp4sJorS-14" value="openItem" style="rounded=0;whiteSpace=wrap;html=1;align=left;" parent="tN0UlOiubW_9Mp4sJorS-15" vertex="1">
          <mxGeometry y="40" width="120" height="20" as="geometry" />
        </mxCell>
        <mxCell id="tN0UlOiubW_9Mp4sJorS-16" style="edgeStyle=orthogonalEdgeStyle;rounded=0;orthogonalLoop=1;jettySize=auto;html=1;entryX=0.5;entryY=0;entryDx=0;entryDy=0;startArrow=diamond;startFill=1;endArrow=none;endFill=0;" parent="1" source="hYjQ5hJqqC87UYRuwTi9-6" target="tN0UlOiubW_9Mp4sJorS-12" edge="1">
          <mxGeometry relative="1" as="geometry">
            <Array as="points">
              <mxPoint x="360" y="410" />
              <mxPoint x="290" y="410" />
            </Array>
          </mxGeometry>
        </mxCell>
        <mxCell id="tN0UlOiubW_9Mp4sJorS-17" style="edgeStyle=orthogonalEdgeStyle;rounded=0;orthogonalLoop=1;jettySize=auto;html=1;entryX=0.5;entryY=0;entryDx=0;entryDy=0;endArrow=none;endFill=0;startArrow=diamond;startFill=1;" parent="1" source="tN0UlOiubW_9Mp4sJorS-3" target="tN0UlOiubW_9Mp4sJorS-12" edge="1">
          <mxGeometry relative="1" as="geometry">
            <Array as="points">
              <mxPoint x="220" y="410" />
              <mxPoint x="290" y="410" />
            </Array>
          </mxGeometry>
        </mxCell>
        <mxCell id="tN0UlOiubW_9Mp4sJorS-20" value="" style="group" parent="1" vertex="1" connectable="0">
          <mxGeometry x="80" y="520" width="120" height="60" as="geometry" />
        </mxCell>
        <mxCell id="tN0UlOiubW_9Mp4sJorS-21" value="CategoryActivity" style="rounded=0;whiteSpace=wrap;html=1;" parent="tN0UlOiubW_9Mp4sJorS-20" vertex="1">
          <mxGeometry width="120" height="20" as="geometry" />
        </mxCell>
        <mxCell id="tN0UlOiubW_9Mp4sJorS-22" value="ToolBar&lt;br&gt;List" style="rounded=0;whiteSpace=wrap;html=1;align=left;" parent="tN0UlOiubW_9Mp4sJorS-20" vertex="1">
          <mxGeometry y="20" width="120" height="40" as="geometry" />
        </mxCell>
        <mxCell id="tN0UlOiubW_9Mp4sJorS-23" value="" style="group;align=left;" parent="1" vertex="1" connectable="0">
          <mxGeometry x="80" y="430" width="120" height="60" as="geometry" />
        </mxCell>
        <mxCell id="tN0UlOiubW_9Mp4sJorS-24" value="CategoryViewModel" style="rounded=0;whiteSpace=wrap;html=1;" parent="tN0UlOiubW_9Mp4sJorS-23" vertex="1">
          <mxGeometry width="120" height="20" as="geometry" />
        </mxCell>
        <mxCell id="tN0UlOiubW_9Mp4sJorS-25" value="list" style="rounded=0;whiteSpace=wrap;html=1;align=left;" parent="tN0UlOiubW_9Mp4sJorS-23" vertex="1">
          <mxGeometry y="20" width="120" height="20" as="geometry" />
        </mxCell>
        <mxCell id="tN0UlOiubW_9Mp4sJorS-26" value="loadData()" style="rounded=0;whiteSpace=wrap;html=1;align=left;" parent="tN0UlOiubW_9Mp4sJorS-23" vertex="1">
          <mxGeometry y="40" width="120" height="20" as="geometry" />
        </mxCell>
        <mxCell id="tN0UlOiubW_9Mp4sJorS-28" value="" style="group" parent="1" vertex="1" connectable="0">
          <mxGeometry x="230" y="520" width="120" height="60" as="geometry" />
        </mxCell>
        <mxCell id="tN0UlOiubW_9Mp4sJorS-29" value="CategoryAdapter" style="rounded=0;whiteSpace=wrap;html=1;" parent="tN0UlOiubW_9Mp4sJorS-28" vertex="1">
          <mxGeometry width="120" height="20" as="geometry" />
        </mxCell>
        <mxCell id="tN0UlOiubW_9Mp4sJorS-30" value="list" style="rounded=0;whiteSpace=wrap;html=1;align=left;" parent="tN0UlOiubW_9Mp4sJorS-28" vertex="1">
          <mxGeometry y="20" width="120" height="20" as="geometry" />
        </mxCell>
        <mxCell id="tN0UlOiubW_9Mp4sJorS-31" value="openItem" style="rounded=0;whiteSpace=wrap;html=1;align=left;" parent="tN0UlOiubW_9Mp4sJorS-28" vertex="1">
          <mxGeometry y="40" width="120" height="20" as="geometry" />
        </mxCell>
        <mxCell id="tN0UlOiubW_9Mp4sJorS-32" style="edgeStyle=orthogonalEdgeStyle;rounded=0;orthogonalLoop=1;jettySize=auto;html=1;entryX=1;entryY=0.5;entryDx=0;entryDy=0;endArrow=none;endFill=0;startArrow=diamond;startFill=1;" parent="1" source="hYjQ5hJqqC87UYRuwTi9-6" target="tN0UlOiubW_9Mp4sJorS-30" edge="1">
          <mxGeometry relative="1" as="geometry">
            <Array as="points">
              <mxPoint x="360" y="550" />
            </Array>
          </mxGeometry>
        </mxCell>
        <mxCell id="tN0UlOiubW_9Mp4sJorS-33" style="edgeStyle=orthogonalEdgeStyle;rounded=0;orthogonalLoop=1;jettySize=auto;html=1;entryX=1;entryY=0.25;entryDx=0;entryDy=0;" parent="1" source="tN0UlOiubW_9Mp4sJorS-30" target="tN0UlOiubW_9Mp4sJorS-22" edge="1">
          <mxGeometry relative="1" as="geometry" />
        </mxCell>
        <mxCell id="tN0UlOiubW_9Mp4sJorS-34" style="edgeStyle=orthogonalEdgeStyle;rounded=0;orthogonalLoop=1;jettySize=auto;html=1;entryX=0.5;entryY=1;entryDx=0;entryDy=0;endArrow=none;endFill=0;" parent="1" source="tN0UlOiubW_9Mp4sJorS-21" target="tN0UlOiubW_9Mp4sJorS-26" edge="1">
          <mxGeometry relative="1" as="geometry" />
        </mxCell>
        <mxCell id="tN0UlOiubW_9Mp4sJorS-449" style="edgeStyle=orthogonalEdgeStyle;rounded=0;orthogonalLoop=1;jettySize=auto;html=1;entryX=0;entryY=0.5;entryDx=0;entryDy=0;" parent="1" source="tN0UlOiubW_9Mp4sJorS-35" target="tN0UlOiubW_9Mp4sJorS-445" edge="1">
          <mxGeometry relative="1" as="geometry">
            <mxPoint x="1000" y="320" as="targetPoint" />
            <Array as="points">
              <mxPoint x="930" y="470" />
              <mxPoint x="930" y="310" />
            </Array>
          </mxGeometry>
        </mxCell>
        <mxCell id="tN0UlOiubW_9Mp4sJorS-35" value="MyBooksAdapter" style="rounded=0;whiteSpace=wrap;html=1;" parent="1" vertex="1">
          <mxGeometry x="630" y="460" width="120" height="20" as="geometry" />
        </mxCell>
        <mxCell id="tN0UlOiubW_9Mp4sJorS-36" style="edgeStyle=orthogonalEdgeStyle;rounded=0;orthogonalLoop=1;jettySize=auto;html=1;endArrow=none;endFill=0;startArrow=diamond;startFill=1;" parent="1" source="hYjQ5hJqqC87UYRuwTi9-9" target="tN0UlOiubW_9Mp4sJorS-35" edge="1">
          <mxGeometry relative="1" as="geometry">
            <Array as="points">
              <mxPoint x="570" y="390" />
              <mxPoint x="640" y="390" />
            </Array>
          </mxGeometry>
        </mxCell>
        <mxCell id="tN0UlOiubW_9Mp4sJorS-37" value="list" style="rounded=0;whiteSpace=wrap;html=1;align=left;" parent="1" vertex="1">
          <mxGeometry x="630" y="480" width="120" height="20" as="geometry" />
        </mxCell>
        <mxCell id="tN0UlOiubW_9Mp4sJorS-52" style="edgeStyle=orthogonalEdgeStyle;rounded=0;orthogonalLoop=1;jettySize=auto;html=1;entryX=0.5;entryY=1;entryDx=0;entryDy=0;" parent="1" source="tN0UlOiubW_9Mp4sJorS-38" target="tN0UlOiubW_9Mp4sJorS-44" edge="1">
          <mxGeometry relative="1" as="geometry" />
        </mxCell>
        <mxCell id="tN0UlOiubW_9Mp4sJorS-38" value="openItem()&lt;br&gt;returnBook()" style="rounded=0;whiteSpace=wrap;html=1;align=left;" parent="1" vertex="1">
          <mxGeometry x="630" y="500" width="120" height="30" as="geometry" />
        </mxCell>
        <mxCell id="tN0UlOiubW_9Mp4sJorS-40" style="edgeStyle=orthogonalEdgeStyle;rounded=0;orthogonalLoop=1;jettySize=auto;html=1;entryX=0.5;entryY=1;entryDx=0;entryDy=0;startArrow=diamond;startFill=1;endArrow=none;endFill=0;" parent="1" source="tN0UlOiubW_9Mp4sJorS-21" target="tN0UlOiubW_9Mp4sJorS-14" edge="1">
          <mxGeometry relative="1" as="geometry">
            <Array as="points">
              <mxPoint x="180" y="500" />
              <mxPoint x="290" y="500" />
            </Array>
          </mxGeometry>
        </mxCell>
        <mxCell id="tN0UlOiubW_9Mp4sJorS-46" value="" style="group" parent="1" vertex="1" connectable="0">
          <mxGeometry x="790" y="320" width="120" height="60" as="geometry" />
        </mxCell>
        <mxCell id="tN0UlOiubW_9Mp4sJorS-41" value="BookActivity" style="rounded=0;whiteSpace=wrap;html=1;" parent="tN0UlOiubW_9Mp4sJorS-46" vertex="1">
          <mxGeometry width="120" height="20" as="geometry" />
        </mxCell>
        <mxCell id="tN0UlOiubW_9Mp4sJorS-42" value="Information" style="rounded=0;whiteSpace=wrap;html=1;align=left;" parent="tN0UlOiubW_9Mp4sJorS-46" vertex="1">
          <mxGeometry y="20" width="120" height="20" as="geometry" />
        </mxCell>
        <mxCell id="tN0UlOiubW_9Mp4sJorS-44" value="makeOrder()" style="rounded=0;whiteSpace=wrap;html=1;align=left;" parent="tN0UlOiubW_9Mp4sJorS-46" vertex="1">
          <mxGeometry y="40" width="120" height="20" as="geometry" />
        </mxCell>
        <mxCell id="tN0UlOiubW_9Mp4sJorS-48" value="" style="group" parent="1" vertex="1" connectable="0">
          <mxGeometry x="790" y="200" width="120" height="60" as="geometry" />
        </mxCell>
        <mxCell id="tN0UlOiubW_9Mp4sJorS-49" value="BookViewModel" style="rounded=0;whiteSpace=wrap;html=1;" parent="tN0UlOiubW_9Mp4sJorS-48" vertex="1">
          <mxGeometry width="120" height="20" as="geometry" />
        </mxCell>
        <mxCell id="tN0UlOiubW_9Mp4sJorS-50" value="Information" style="rounded=0;whiteSpace=wrap;html=1;align=left;" parent="tN0UlOiubW_9Mp4sJorS-48" vertex="1">
          <mxGeometry y="20" width="120" height="20" as="geometry" />
        </mxCell>
        <mxCell id="tN0UlOiubW_9Mp4sJorS-51" value="loadData()" style="rounded=0;whiteSpace=wrap;html=1;align=left;" parent="tN0UlOiubW_9Mp4sJorS-48" vertex="1">
          <mxGeometry y="40" width="120" height="20" as="geometry" />
        </mxCell>
        <mxCell id="tN0UlOiubW_9Mp4sJorS-53" style="edgeStyle=orthogonalEdgeStyle;rounded=0;orthogonalLoop=1;jettySize=auto;html=1;entryX=0.5;entryY=1;entryDx=0;entryDy=0;endArrow=none;endFill=0;" parent="1" source="tN0UlOiubW_9Mp4sJorS-41" target="tN0UlOiubW_9Mp4sJorS-51" edge="1">
          <mxGeometry relative="1" as="geometry" />
        </mxCell>
        <mxCell id="tN0UlOiubW_9Mp4sJorS-54" style="edgeStyle=orthogonalEdgeStyle;rounded=0;orthogonalLoop=1;jettySize=auto;html=1;entryX=0.5;entryY=1;entryDx=0;entryDy=0;" parent="1" source="tN0UlOiubW_9Mp4sJorS-13" target="tN0UlOiubW_9Mp4sJorS-44" edge="1">
          <mxGeometry relative="1" as="geometry">
            <Array as="points">
              <mxPoint x="380" y="460" />
              <mxPoint x="380" y="550" />
              <mxPoint x="850" y="550" />
            </Array>
          </mxGeometry>
        </mxCell>
        <mxCell id="tN0UlOiubW_9Mp4sJorS-57" value="" style="group;align=left;" parent="1" vertex="1" connectable="0">
          <mxGeometry x="680" y="620" width="120" height="40" as="geometry" />
        </mxCell>
        <mxCell id="tN0UlOiubW_9Mp4sJorS-55" value="SplashActivity&lt;span style=&quot;color: rgb(255, 255, 255); font-family: &amp;quot;Söhne Mono&amp;quot;, Monaco, &amp;quot;Andale Mono&amp;quot;, &amp;quot;Ubuntu Mono&amp;quot;, monospace; font-size: 14px; text-align: left; background-color: rgb(0, 0, 0);&quot;&gt; &lt;/span&gt;" style="rounded=0;whiteSpace=wrap;html=1;" parent="tN0UlOiubW_9Mp4sJorS-57" vertex="1">
          <mxGeometry width="120" height="20" as="geometry" />
        </mxCell>
        <mxCell id="tN0UlOiubW_9Mp4sJorS-56" value="checkLogin()" style="rounded=0;whiteSpace=wrap;html=1;align=left;" parent="tN0UlOiubW_9Mp4sJorS-57" vertex="1">
          <mxGeometry y="20" width="120" height="20" as="geometry" />
        </mxCell>
        <mxCell id="tN0UlOiubW_9Mp4sJorS-58" style="edgeStyle=orthogonalEdgeStyle;rounded=0;orthogonalLoop=1;jettySize=auto;html=1;entryX=0.5;entryY=1;entryDx=0;entryDy=0;" parent="1" source="tN0UlOiubW_9Mp4sJorS-55" target="hYjQ5hJqqC87UYRuwTi9-3" edge="1">
          <mxGeometry relative="1" as="geometry">
            <Array as="points">
              <mxPoint x="740" y="570" />
              <mxPoint x="540" y="570" />
            </Array>
          </mxGeometry>
        </mxCell>
        <mxCell id="tN0UlOiubW_9Mp4sJorS-62" value="" style="group" parent="1" vertex="1" connectable="0">
          <mxGeometry x="940" y="460" width="120" height="80" as="geometry" />
        </mxCell>
        <mxCell id="tN0UlOiubW_9Mp4sJorS-59" value="LoginActivity" style="rounded=0;whiteSpace=wrap;html=1;" parent="tN0UlOiubW_9Mp4sJorS-62" vertex="1">
          <mxGeometry width="120" height="20" as="geometry" />
        </mxCell>
        <mxCell id="tN0UlOiubW_9Mp4sJorS-60" value="fields" style="rounded=0;whiteSpace=wrap;html=1;align=left;" parent="tN0UlOiubW_9Mp4sJorS-62" vertex="1">
          <mxGeometry y="20" width="120" height="20" as="geometry" />
        </mxCell>
        <mxCell id="tN0UlOiubW_9Mp4sJorS-61" value="Login()&lt;br&gt;Register()" style="rounded=0;whiteSpace=wrap;html=1;align=left;" parent="tN0UlOiubW_9Mp4sJorS-62" vertex="1">
          <mxGeometry y="40" width="120" height="40" as="geometry" />
        </mxCell>
        <mxCell id="tN0UlOiubW_9Mp4sJorS-63" style="edgeStyle=orthogonalEdgeStyle;rounded=0;orthogonalLoop=1;jettySize=auto;html=1;entryX=0.5;entryY=1;entryDx=0;entryDy=0;" parent="1" source="tN0UlOiubW_9Mp4sJorS-55" target="tN0UlOiubW_9Mp4sJorS-61" edge="1">
          <mxGeometry relative="1" as="geometry">
            <Array as="points">
              <mxPoint x="740" y="600" />
              <mxPoint x="1000" y="600" />
            </Array>
          </mxGeometry>
        </mxCell>
        <mxCell id="tN0UlOiubW_9Mp4sJorS-64" style="edgeStyle=orthogonalEdgeStyle;rounded=0;orthogonalLoop=1;jettySize=auto;html=1;entryX=0.5;entryY=1;entryDx=0;entryDy=0;exitX=0.25;exitY=1;exitDx=0;exitDy=0;" parent="1" source="tN0UlOiubW_9Mp4sJorS-61" target="hYjQ5hJqqC87UYRuwTi9-3" edge="1">
          <mxGeometry relative="1" as="geometry">
            <Array as="points">
              <mxPoint x="960" y="540" />
              <mxPoint x="960" y="570" />
              <mxPoint x="540" y="570" />
            </Array>
          </mxGeometry>
        </mxCell>
        <mxCell id="tN0UlOiubW_9Mp4sJorS-73" value="" style="group" parent="1" vertex="1" connectable="0">
          <mxGeometry x="940" y="360" width="120" height="60" as="geometry" />
        </mxCell>
        <mxCell id="tN0UlOiubW_9Mp4sJorS-65" value="SetAcountActivty" style="rounded=0;whiteSpace=wrap;html=1;" parent="tN0UlOiubW_9Mp4sJorS-73" vertex="1">
          <mxGeometry width="120" height="20" as="geometry" />
        </mxCell>
        <mxCell id="tN0UlOiubW_9Mp4sJorS-71" value="fields" style="rounded=0;whiteSpace=wrap;html=1;" parent="tN0UlOiubW_9Mp4sJorS-73" vertex="1">
          <mxGeometry y="20" width="120" height="20" as="geometry" />
        </mxCell>
        <mxCell id="tN0UlOiubW_9Mp4sJorS-72" value="saveData()" style="rounded=0;whiteSpace=wrap;html=1;" parent="tN0UlOiubW_9Mp4sJorS-73" vertex="1">
          <mxGeometry y="40" width="120" height="20" as="geometry" />
        </mxCell>
        <mxCell id="tN0UlOiubW_9Mp4sJorS-74" style="edgeStyle=orthogonalEdgeStyle;rounded=0;orthogonalLoop=1;jettySize=auto;html=1;entryX=0.5;entryY=1;entryDx=0;entryDy=0;" parent="1" source="tN0UlOiubW_9Mp4sJorS-59" target="tN0UlOiubW_9Mp4sJorS-72" edge="1">
          <mxGeometry relative="1" as="geometry" />
        </mxCell>
        <mxCell id="tN0UlOiubW_9Mp4sJorS-76" style="edgeStyle=orthogonalEdgeStyle;rounded=0;orthogonalLoop=1;jettySize=auto;html=1;entryX=0.145;entryY=-0.089;entryDx=0;entryDy=0;entryPerimeter=0;" parent="1" source="hYjQ5hJqqC87UYRuwTi9-22" target="tN0UlOiubW_9Mp4sJorS-65" edge="1">
          <mxGeometry relative="1" as="geometry">
            <Array as="points">
              <mxPoint x="740" y="190" />
              <mxPoint x="957" y="190" />
              <mxPoint x="957" y="358" />
            </Array>
          </mxGeometry>
        </mxCell>
        <mxCell id="tN0UlOiubW_9Mp4sJorS-77" style="edgeStyle=orthogonalEdgeStyle;rounded=0;orthogonalLoop=1;jettySize=auto;html=1;exitX=0.75;exitY=0;exitDx=0;exitDy=0;entryX=0.25;entryY=0;entryDx=0;entryDy=0;" parent="1" source="tN0UlOiubW_9Mp4sJorS-65" target="hYjQ5hJqqC87UYRuwTi9-22" edge="1">
          <mxGeometry relative="1" as="geometry">
            <Array as="points">
              <mxPoint x="970" y="360" />
              <mxPoint x="970" y="180" />
              <mxPoint x="670" y="180" />
            </Array>
          </mxGeometry>
        </mxCell>
        <mxCell id="tN0UlOiubW_9Mp4sJorS-78" value="&lt;font style=&quot;font-size: 64px;&quot;&gt;UI&lt;/font&gt;" style="text;html=1;strokeColor=none;fillColor=none;align=center;verticalAlign=middle;whiteSpace=wrap;rounded=0;fontStyle=0" parent="1" vertex="1">
          <mxGeometry x="-80" y="200" width="80" height="80" as="geometry" />
        </mxCell>
        <mxCell id="tN0UlOiubW_9Mp4sJorS-80" value="&lt;font style=&quot;font-size: 64px;&quot;&gt;Data&lt;/font&gt;" style="text;html=1;strokeColor=none;fillColor=none;align=center;verticalAlign=middle;whiteSpace=wrap;rounded=0;fontStyle=0" parent="1" vertex="1">
          <mxGeometry x="-160" y="60" width="160" height="80" as="geometry" />
        </mxCell>
        <mxCell id="tN0UlOiubW_9Mp4sJorS-428" value="" style="group;align=center;" parent="1" vertex="1" connectable="0">
          <mxGeometry x="320" y="60" width="120" height="60" as="geometry" />
        </mxCell>
        <mxCell id="tN0UlOiubW_9Mp4sJorS-426" value="CatalogRepository" style="rounded=0;whiteSpace=wrap;html=1;" parent="tN0UlOiubW_9Mp4sJorS-428" vertex="1">
          <mxGeometry width="120" height="20" as="geometry" />
        </mxCell>
        <mxCell id="tN0UlOiubW_9Mp4sJorS-427" value="getRecomendations()&lt;br&gt;getCategories()" style="rounded=0;whiteSpace=wrap;html=1;align=left;" parent="tN0UlOiubW_9Mp4sJorS-428" vertex="1">
          <mxGeometry y="20" width="120" height="40" as="geometry" />
        </mxCell>
        <mxCell id="tN0UlOiubW_9Mp4sJorS-429" style="edgeStyle=orthogonalEdgeStyle;rounded=0;orthogonalLoop=1;jettySize=auto;html=1;entryX=0.5;entryY=1;entryDx=0;entryDy=0;startArrow=classic;startFill=1;" parent="1" source="hYjQ5hJqqC87UYRuwTi9-14" target="tN0UlOiubW_9Mp4sJorS-427" edge="1">
          <mxGeometry relative="1" as="geometry" />
        </mxCell>
        <mxCell id="tN0UlOiubW_9Mp4sJorS-432" value="" style="group;align=left;" parent="1" vertex="1" connectable="0">
          <mxGeometry x="160" y="60" width="120" height="40" as="geometry" />
        </mxCell>
        <mxCell id="tN0UlOiubW_9Mp4sJorS-430" value="SearchRepository" style="rounded=0;whiteSpace=wrap;html=1;" parent="tN0UlOiubW_9Mp4sJorS-432" vertex="1">
          <mxGeometry width="120" height="20" as="geometry" />
        </mxCell>
        <mxCell id="tN0UlOiubW_9Mp4sJorS-431" value="getSearchList()" style="rounded=0;whiteSpace=wrap;html=1;align=left;" parent="tN0UlOiubW_9Mp4sJorS-432" vertex="1">
          <mxGeometry y="20" width="120" height="20" as="geometry" />
        </mxCell>
        <mxCell id="tN0UlOiubW_9Mp4sJorS-435" value="" style="group" parent="1" vertex="1" connectable="0">
          <mxGeometry x="10" y="60" width="120" height="40" as="geometry" />
        </mxCell>
        <mxCell id="tN0UlOiubW_9Mp4sJorS-433" value="CategoryRepository" style="rounded=0;whiteSpace=wrap;html=1;" parent="tN0UlOiubW_9Mp4sJorS-435" vertex="1">
          <mxGeometry width="120" height="20" as="geometry" />
        </mxCell>
        <mxCell id="tN0UlOiubW_9Mp4sJorS-434" value="getList()" style="rounded=0;whiteSpace=wrap;html=1;" parent="tN0UlOiubW_9Mp4sJorS-435" vertex="1">
          <mxGeometry y="20" width="120" height="20" as="geometry" />
        </mxCell>
        <mxCell id="tN0UlOiubW_9Mp4sJorS-489" style="edgeStyle=orthogonalEdgeStyle;rounded=0;orthogonalLoop=1;jettySize=auto;html=1;" parent="1" source="tN0UlOiubW_9Mp4sJorS-436" edge="1">
          <mxGeometry relative="1" as="geometry">
            <mxPoint x="500" as="targetPoint" />
            <Array as="points">
              <mxPoint x="540" y="20" />
              <mxPoint x="500" y="20" />
            </Array>
          </mxGeometry>
        </mxCell>
        <mxCell id="tN0UlOiubW_9Mp4sJorS-526" style="edgeStyle=orthogonalEdgeStyle;rounded=0;orthogonalLoop=1;jettySize=auto;html=1;entryX=0.5;entryY=1;entryDx=0;entryDy=0;" parent="1" source="tN0UlOiubW_9Mp4sJorS-436" target="tN0UlOiubW_9Mp4sJorS-519" edge="1">
          <mxGeometry relative="1" as="geometry">
            <Array as="points">
              <mxPoint x="540" y="10" />
              <mxPoint x="860" y="10" />
            </Array>
          </mxGeometry>
        </mxCell>
        <mxCell id="tN0UlOiubW_9Mp4sJorS-436" value="MyBooksRepository" style="rounded=0;whiteSpace=wrap;html=1;" parent="1" vertex="1">
          <mxGeometry x="480" y="60" width="120" height="20" as="geometry" />
        </mxCell>
        <mxCell id="tN0UlOiubW_9Mp4sJorS-441" style="edgeStyle=orthogonalEdgeStyle;rounded=0;orthogonalLoop=1;jettySize=auto;html=1;entryX=0.5;entryY=0;entryDx=0;entryDy=0;startArrow=classic;startFill=1;" parent="1" source="tN0UlOiubW_9Mp4sJorS-437" target="hYjQ5hJqqC87UYRuwTi9-18" edge="1">
          <mxGeometry relative="1" as="geometry" />
        </mxCell>
        <mxCell id="tN0UlOiubW_9Mp4sJorS-437" value="getData()&lt;br&gt;updateData()" style="rounded=0;whiteSpace=wrap;html=1;align=left;" parent="1" vertex="1">
          <mxGeometry x="480" y="80" width="120" height="40" as="geometry" />
        </mxCell>
        <mxCell id="tN0UlOiubW_9Mp4sJorS-439" style="edgeStyle=orthogonalEdgeStyle;rounded=0;orthogonalLoop=1;jettySize=auto;html=1;entryX=0.5;entryY=1;entryDx=0;entryDy=0;startArrow=classic;startFill=1;" parent="1" source="tN0UlOiubW_9Mp4sJorS-5" target="tN0UlOiubW_9Mp4sJorS-431" edge="1">
          <mxGeometry relative="1" as="geometry" />
        </mxCell>
        <mxCell id="tN0UlOiubW_9Mp4sJorS-440" style="edgeStyle=orthogonalEdgeStyle;rounded=0;orthogonalLoop=1;jettySize=auto;html=1;entryX=0.5;entryY=0;entryDx=0;entryDy=0;startArrow=classic;startFill=1;" parent="1" source="tN0UlOiubW_9Mp4sJorS-434" target="tN0UlOiubW_9Mp4sJorS-24" edge="1">
          <mxGeometry relative="1" as="geometry" />
        </mxCell>
        <mxCell id="tN0UlOiubW_9Mp4sJorS-75" style="edgeStyle=orthogonalEdgeStyle;rounded=0;orthogonalLoop=1;jettySize=auto;html=1;entryX=0.5;entryY=1;entryDx=0;entryDy=0;" parent="1" source="tN0UlOiubW_9Mp4sJorS-71" target="hYjQ5hJqqC87UYRuwTi9-3" edge="1">
          <mxGeometry relative="1" as="geometry">
            <mxPoint x="550" y="500" as="targetPoint" />
            <Array as="points">
              <mxPoint x="890" y="390" />
              <mxPoint x="890" y="570" />
              <mxPoint x="540" y="570" />
            </Array>
          </mxGeometry>
        </mxCell>
        <mxCell id="tN0UlOiubW_9Mp4sJorS-447" value="" style="group" parent="1" vertex="1" connectable="0">
          <mxGeometry x="1000" y="280" width="120" height="60" as="geometry" />
        </mxCell>
        <mxCell id="tN0UlOiubW_9Mp4sJorS-444" value="OrderActivity" style="rounded=0;whiteSpace=wrap;html=1;" parent="tN0UlOiubW_9Mp4sJorS-447" vertex="1">
          <mxGeometry width="120" height="20" as="geometry" />
        </mxCell>
        <mxCell id="tN0UlOiubW_9Mp4sJorS-445" value="Info" style="rounded=0;whiteSpace=wrap;html=1;align=left;" parent="tN0UlOiubW_9Mp4sJorS-447" vertex="1">
          <mxGeometry y="20" width="120" height="20" as="geometry" />
        </mxCell>
        <mxCell id="tN0UlOiubW_9Mp4sJorS-446" value="confirm()" style="rounded=0;whiteSpace=wrap;html=1;align=left;" parent="tN0UlOiubW_9Mp4sJorS-447" vertex="1">
          <mxGeometry y="40" width="120" height="20" as="geometry" />
        </mxCell>
        <mxCell id="tN0UlOiubW_9Mp4sJorS-448" style="edgeStyle=orthogonalEdgeStyle;rounded=0;orthogonalLoop=1;jettySize=auto;html=1;entryX=0;entryY=0.5;entryDx=0;entryDy=0;" parent="1" source="tN0UlOiubW_9Mp4sJorS-41" target="tN0UlOiubW_9Mp4sJorS-445" edge="1">
          <mxGeometry relative="1" as="geometry">
            <Array as="points">
              <mxPoint x="930" y="330" />
              <mxPoint x="930" y="310" />
            </Array>
          </mxGeometry>
        </mxCell>
        <mxCell id="tN0UlOiubW_9Mp4sJorS-453" value="" style="group" parent="1" vertex="1" connectable="0">
          <mxGeometry x="1000" y="50" width="120" height="70" as="geometry" />
        </mxCell>
        <mxCell id="tN0UlOiubW_9Mp4sJorS-450" value="OrdereRepository" style="rounded=0;whiteSpace=wrap;html=1;" parent="tN0UlOiubW_9Mp4sJorS-453" vertex="1">
          <mxGeometry width="120" height="20" as="geometry" />
        </mxCell>
        <mxCell id="tN0UlOiubW_9Mp4sJorS-451" value="loadData()&lt;br&gt;rentBook()&lt;br&gt;returnBook()" style="rounded=0;whiteSpace=wrap;html=1;align=left;" parent="tN0UlOiubW_9Mp4sJorS-453" vertex="1">
          <mxGeometry y="20" width="120" height="50" as="geometry" />
        </mxCell>
        <mxCell id="tN0UlOiubW_9Mp4sJorS-455" value="" style="group" parent="1" vertex="1" connectable="0">
          <mxGeometry x="1000" y="200" width="120" height="60" as="geometry" />
        </mxCell>
        <mxCell id="tN0UlOiubW_9Mp4sJorS-456" value="OrderViewModel" style="rounded=0;whiteSpace=wrap;html=1;" parent="tN0UlOiubW_9Mp4sJorS-455" vertex="1">
          <mxGeometry width="120" height="20" as="geometry" />
        </mxCell>
        <mxCell id="tN0UlOiubW_9Mp4sJorS-457" value="Information" style="rounded=0;whiteSpace=wrap;html=1;align=left;" parent="tN0UlOiubW_9Mp4sJorS-455" vertex="1">
          <mxGeometry y="20" width="120" height="20" as="geometry" />
        </mxCell>
        <mxCell id="tN0UlOiubW_9Mp4sJorS-458" value="loadData()" style="rounded=0;whiteSpace=wrap;html=1;align=left;" parent="tN0UlOiubW_9Mp4sJorS-455" vertex="1">
          <mxGeometry y="40" width="120" height="20" as="geometry" />
        </mxCell>
        <mxCell id="tN0UlOiubW_9Mp4sJorS-459" style="edgeStyle=orthogonalEdgeStyle;rounded=0;orthogonalLoop=1;jettySize=auto;html=1;entryX=0.5;entryY=0;entryDx=0;entryDy=0;endArrow=none;endFill=0;" parent="1" source="tN0UlOiubW_9Mp4sJorS-458" target="tN0UlOiubW_9Mp4sJorS-444" edge="1">
          <mxGeometry relative="1" as="geometry" />
        </mxCell>
        <mxCell id="tN0UlOiubW_9Mp4sJorS-460" style="edgeStyle=orthogonalEdgeStyle;rounded=0;orthogonalLoop=1;jettySize=auto;html=1;startArrow=classic;startFill=1;" parent="1" source="tN0UlOiubW_9Mp4sJorS-451" target="tN0UlOiubW_9Mp4sJorS-456" edge="1">
          <mxGeometry relative="1" as="geometry" />
        </mxCell>
        <mxCell id="tN0UlOiubW_9Mp4sJorS-464" value="" style="group" parent="1" vertex="1" connectable="0">
          <mxGeometry x="640" y="60" width="120" height="60" as="geometry" />
        </mxCell>
        <mxCell id="tN0UlOiubW_9Mp4sJorS-527" style="edgeStyle=orthogonalEdgeStyle;rounded=0;orthogonalLoop=1;jettySize=auto;html=1;" parent="tN0UlOiubW_9Mp4sJorS-464" source="tN0UlOiubW_9Mp4sJorS-462" edge="1">
          <mxGeometry relative="1" as="geometry">
            <mxPoint x="220" y="-130" as="targetPoint" />
            <Array as="points">
              <mxPoint x="60" y="-50" />
              <mxPoint x="221" y="-50" />
            </Array>
          </mxGeometry>
        </mxCell>
        <mxCell id="tN0UlOiubW_9Mp4sJorS-462" value="SettingRepository" style="rounded=0;whiteSpace=wrap;html=1;" parent="tN0UlOiubW_9Mp4sJorS-464" vertex="1">
          <mxGeometry width="120" height="20" as="geometry" />
        </mxCell>
        <mxCell id="tN0UlOiubW_9Mp4sJorS-463" value="loadData()&lt;br&gt;logOut()" style="rounded=0;whiteSpace=wrap;html=1;align=left;" parent="tN0UlOiubW_9Mp4sJorS-464" vertex="1">
          <mxGeometry y="20" width="120" height="40" as="geometry" />
        </mxCell>
        <mxCell id="tN0UlOiubW_9Mp4sJorS-465" style="edgeStyle=orthogonalEdgeStyle;rounded=0;orthogonalLoop=1;jettySize=auto;html=1;entryX=0.5;entryY=0;entryDx=0;entryDy=0;startArrow=classic;startFill=1;" parent="1" source="tN0UlOiubW_9Mp4sJorS-463" target="hYjQ5hJqqC87UYRuwTi9-22" edge="1">
          <mxGeometry relative="1" as="geometry" />
        </mxCell>
        <mxCell id="tN0UlOiubW_9Mp4sJorS-470" value="" style="group" parent="1" vertex="1" connectable="0">
          <mxGeometry x="1160" y="75" width="120" height="50" as="geometry" />
        </mxCell>
        <mxCell id="tN0UlOiubW_9Mp4sJorS-528" style="edgeStyle=orthogonalEdgeStyle;rounded=0;orthogonalLoop=1;jettySize=auto;html=1;" parent="tN0UlOiubW_9Mp4sJorS-470" source="tN0UlOiubW_9Mp4sJorS-466" edge="1">
          <mxGeometry relative="1" as="geometry">
            <mxPoint x="-300" y="-145" as="targetPoint" />
            <Array as="points">
              <mxPoint x="60" y="-65" />
              <mxPoint x="-299" y="-65" />
            </Array>
          </mxGeometry>
        </mxCell>
        <mxCell id="tN0UlOiubW_9Mp4sJorS-466" value="SetAcountRepository" style="rounded=0;whiteSpace=wrap;html=1;" parent="tN0UlOiubW_9Mp4sJorS-470" vertex="1">
          <mxGeometry width="120" height="20" as="geometry" />
        </mxCell>
        <mxCell id="tN0UlOiubW_9Mp4sJorS-467" value="loadData()&lt;br&gt;setData()" style="rounded=0;whiteSpace=wrap;html=1;align=left;" parent="tN0UlOiubW_9Mp4sJorS-470" vertex="1">
          <mxGeometry y="20" width="120" height="30" as="geometry" />
        </mxCell>
        <mxCell id="tN0UlOiubW_9Mp4sJorS-472" value="" style="group" parent="1" vertex="1" connectable="0">
          <mxGeometry x="1160" y="280" width="120" height="70" as="geometry" />
        </mxCell>
        <mxCell id="tN0UlOiubW_9Mp4sJorS-468" value="SetAcountViewModel" style="rounded=0;whiteSpace=wrap;html=1;" parent="tN0UlOiubW_9Mp4sJorS-472" vertex="1">
          <mxGeometry width="120" height="20" as="geometry" />
        </mxCell>
        <mxCell id="tN0UlOiubW_9Mp4sJorS-469" value="loadData()&lt;br&gt;setData()" style="rounded=0;whiteSpace=wrap;html=1;align=left;" parent="tN0UlOiubW_9Mp4sJorS-472" vertex="1">
          <mxGeometry y="40" width="120" height="30" as="geometry" />
        </mxCell>
        <mxCell id="tN0UlOiubW_9Mp4sJorS-471" value="data" style="rounded=0;whiteSpace=wrap;html=1;align=left;" parent="tN0UlOiubW_9Mp4sJorS-472" vertex="1">
          <mxGeometry y="20" width="120" height="20" as="geometry" />
        </mxCell>
        <mxCell id="tN0UlOiubW_9Mp4sJorS-473" style="edgeStyle=orthogonalEdgeStyle;rounded=0;orthogonalLoop=1;jettySize=auto;html=1;entryX=0.5;entryY=1;entryDx=0;entryDy=0;endArrow=none;endFill=0;" parent="1" source="tN0UlOiubW_9Mp4sJorS-65" target="tN0UlOiubW_9Mp4sJorS-469" edge="1">
          <mxGeometry relative="1" as="geometry" />
        </mxCell>
        <mxCell id="tN0UlOiubW_9Mp4sJorS-475" style="edgeStyle=orthogonalEdgeStyle;rounded=0;orthogonalLoop=1;jettySize=auto;html=1;entryX=0.5;entryY=1;entryDx=0;entryDy=0;startArrow=classic;startFill=1;" parent="1" source="tN0UlOiubW_9Mp4sJorS-468" target="tN0UlOiubW_9Mp4sJorS-467" edge="1">
          <mxGeometry relative="1" as="geometry" />
        </mxCell>
        <mxCell id="tN0UlOiubW_9Mp4sJorS-505" style="edgeStyle=orthogonalEdgeStyle;rounded=0;orthogonalLoop=1;jettySize=auto;html=1;entryX=0.5;entryY=1;entryDx=0;entryDy=0;" parent="1" source="tN0UlOiubW_9Mp4sJorS-485" target="tN0UlOiubW_9Mp4sJorS-503" edge="1">
          <mxGeometry relative="1" as="geometry" />
        </mxCell>
        <mxCell id="tN0UlOiubW_9Mp4sJorS-485" value="DataBaseObject" style="rounded=0;whiteSpace=wrap;html=1;" parent="1" vertex="1">
          <mxGeometry x="440" y="-40" width="120" height="40" as="geometry" />
        </mxCell>
        <mxCell id="tN0UlOiubW_9Mp4sJorS-486" style="edgeStyle=orthogonalEdgeStyle;rounded=0;orthogonalLoop=1;jettySize=auto;html=1;entryX=0.5;entryY=1;entryDx=0;entryDy=0;" parent="1" source="tN0UlOiubW_9Mp4sJorS-433" target="tN0UlOiubW_9Mp4sJorS-485" edge="1">
          <mxGeometry relative="1" as="geometry">
            <Array as="points">
              <mxPoint x="70" y="20" />
              <mxPoint x="500" y="20" />
            </Array>
          </mxGeometry>
        </mxCell>
        <mxCell id="tN0UlOiubW_9Mp4sJorS-487" style="edgeStyle=orthogonalEdgeStyle;rounded=0;orthogonalLoop=1;jettySize=auto;html=1;" parent="1" source="tN0UlOiubW_9Mp4sJorS-430" target="tN0UlOiubW_9Mp4sJorS-485" edge="1">
          <mxGeometry relative="1" as="geometry">
            <Array as="points">
              <mxPoint x="220" y="20" />
              <mxPoint x="500" y="20" />
            </Array>
          </mxGeometry>
        </mxCell>
        <mxCell id="tN0UlOiubW_9Mp4sJorS-488" style="edgeStyle=orthogonalEdgeStyle;rounded=0;orthogonalLoop=1;jettySize=auto;html=1;entryX=0.5;entryY=1;entryDx=0;entryDy=0;" parent="1" source="tN0UlOiubW_9Mp4sJorS-426" target="tN0UlOiubW_9Mp4sJorS-485" edge="1">
          <mxGeometry relative="1" as="geometry">
            <Array as="points">
              <mxPoint x="380" y="20" />
              <mxPoint x="500" y="20" />
            </Array>
          </mxGeometry>
        </mxCell>
        <mxCell id="tN0UlOiubW_9Mp4sJorS-490" style="edgeStyle=orthogonalEdgeStyle;rounded=0;orthogonalLoop=1;jettySize=auto;html=1;entryX=0.5;entryY=1;entryDx=0;entryDy=0;" parent="1" source="tN0UlOiubW_9Mp4sJorS-462" target="tN0UlOiubW_9Mp4sJorS-485" edge="1">
          <mxGeometry relative="1" as="geometry">
            <Array as="points">
              <mxPoint x="700" y="20" />
              <mxPoint x="500" y="20" />
            </Array>
          </mxGeometry>
        </mxCell>
        <mxCell id="tN0UlOiubW_9Mp4sJorS-491" style="edgeStyle=orthogonalEdgeStyle;rounded=0;orthogonalLoop=1;jettySize=auto;html=1;entryX=0.5;entryY=1;entryDx=0;entryDy=0;" parent="1" source="tN0UlOiubW_9Mp4sJorS-450" target="tN0UlOiubW_9Mp4sJorS-485" edge="1">
          <mxGeometry relative="1" as="geometry">
            <Array as="points">
              <mxPoint x="1060" y="20" />
              <mxPoint x="500" y="20" />
            </Array>
          </mxGeometry>
        </mxCell>
        <mxCell id="tN0UlOiubW_9Mp4sJorS-492" style="edgeStyle=orthogonalEdgeStyle;rounded=0;orthogonalLoop=1;jettySize=auto;html=1;entryX=0.5;entryY=1;entryDx=0;entryDy=0;" parent="1" source="tN0UlOiubW_9Mp4sJorS-466" target="tN0UlOiubW_9Mp4sJorS-485" edge="1">
          <mxGeometry relative="1" as="geometry">
            <Array as="points">
              <mxPoint x="1220" y="20" />
              <mxPoint x="500" y="20" />
            </Array>
          </mxGeometry>
        </mxCell>
        <mxCell id="tN0UlOiubW_9Mp4sJorS-497" value="" style="group" parent="1" vertex="1" connectable="0">
          <mxGeometry x="360" y="-300" width="80" height="140" as="geometry" />
        </mxCell>
        <mxCell id="tN0UlOiubW_9Mp4sJorS-493" value="Book" style="rounded=0;whiteSpace=wrap;html=1;" parent="tN0UlOiubW_9Mp4sJorS-497" vertex="1">
          <mxGeometry width="80" height="20" as="geometry" />
        </mxCell>
        <mxCell id="tN0UlOiubW_9Mp4sJorS-494" value="id&lt;br&gt;name&lt;br&gt;img&lt;br&gt;author&lt;br&gt;categories&lt;br&gt;language&lt;br&gt;pages&lt;br&gt;description" style="rounded=0;whiteSpace=wrap;html=1;align=left;" parent="tN0UlOiubW_9Mp4sJorS-497" vertex="1">
          <mxGeometry y="20" width="80" height="120" as="geometry" />
        </mxCell>
        <mxCell id="tN0UlOiubW_9Mp4sJorS-498" value="" style="group" parent="1" vertex="1" connectable="0">
          <mxGeometry x="560" y="-300" width="80" height="130" as="geometry" />
        </mxCell>
        <mxCell id="tN0UlOiubW_9Mp4sJorS-495" value="User" style="rounded=0;whiteSpace=wrap;html=1;" parent="tN0UlOiubW_9Mp4sJorS-498" vertex="1">
          <mxGeometry width="80" height="20" as="geometry" />
        </mxCell>
        <mxCell id="tN0UlOiubW_9Mp4sJorS-512" style="edgeStyle=orthogonalEdgeStyle;rounded=0;orthogonalLoop=1;jettySize=auto;html=1;" parent="tN0UlOiubW_9Mp4sJorS-498" source="tN0UlOiubW_9Mp4sJorS-496" edge="1">
          <mxGeometry relative="1" as="geometry">
            <mxPoint x="-60.00000000000023" y="179.9999999999999" as="targetPoint" />
            <Array as="points">
              <mxPoint x="-60" y="100" />
            </Array>
          </mxGeometry>
        </mxCell>
        <mxCell id="tN0UlOiubW_9Mp4sJorS-496" value="id&lt;br&gt;name&lt;br&gt;number&lt;br&gt;password&lt;br&gt;adress&lt;br&gt;plan" style="rounded=0;whiteSpace=wrap;html=1;align=left;" parent="tN0UlOiubW_9Mp4sJorS-498" vertex="1">
          <mxGeometry y="20" width="80" height="110" as="geometry" />
        </mxCell>
        <mxCell id="tN0UlOiubW_9Mp4sJorS-501" value="" style="group" parent="1" vertex="1" connectable="0">
          <mxGeometry x="460" y="-300" width="80" height="70" as="geometry" />
        </mxCell>
        <mxCell id="tN0UlOiubW_9Mp4sJorS-499" value="RentBooks" style="rounded=0;whiteSpace=wrap;html=1;" parent="tN0UlOiubW_9Mp4sJorS-501" vertex="1">
          <mxGeometry width="80" height="20" as="geometry" />
        </mxCell>
        <mxCell id="tN0UlOiubW_9Mp4sJorS-500" value="userId&lt;br&gt;bookId&lt;br&gt;date" style="rounded=0;whiteSpace=wrap;html=1;align=left;" parent="tN0UlOiubW_9Mp4sJorS-501" vertex="1">
          <mxGeometry y="20" width="80" height="50" as="geometry" />
        </mxCell>
        <mxCell id="tN0UlOiubW_9Mp4sJorS-502" value="Dao" style="rounded=0;whiteSpace=wrap;html=1;" parent="1" vertex="1">
          <mxGeometry x="600" y="-120" width="120" height="40" as="geometry" />
        </mxCell>
        <mxCell id="tN0UlOiubW_9Mp4sJorS-506" style="edgeStyle=orthogonalEdgeStyle;rounded=0;orthogonalLoop=1;jettySize=auto;html=1;entryX=0;entryY=0.5;entryDx=0;entryDy=0;dashed=1;dashPattern=8 8;" parent="1" source="tN0UlOiubW_9Mp4sJorS-503" target="tN0UlOiubW_9Mp4sJorS-502" edge="1">
          <mxGeometry relative="1" as="geometry" />
        </mxCell>
        <mxCell id="tN0UlOiubW_9Mp4sJorS-503" value="LibraryDataBase" style="rounded=0;whiteSpace=wrap;html=1;" parent="1" vertex="1">
          <mxGeometry x="440" y="-120" width="120" height="40" as="geometry" />
        </mxCell>
        <mxCell id="tN0UlOiubW_9Mp4sJorS-507" value="Room&lt;br&gt;DataBase" style="shape=cylinder3;whiteSpace=wrap;html=1;boundedLbl=1;backgroundOutline=1;size=9.533345540364593;" parent="1" vertex="1">
          <mxGeometry x="320" y="-130" width="80" height="60" as="geometry" />
        </mxCell>
        <mxCell id="tN0UlOiubW_9Mp4sJorS-508" style="edgeStyle=orthogonalEdgeStyle;rounded=0;orthogonalLoop=1;jettySize=auto;html=1;entryX=1;entryY=0.5;entryDx=0;entryDy=0;entryPerimeter=0;startArrow=classic;startFill=1;" parent="1" source="tN0UlOiubW_9Mp4sJorS-503" target="tN0UlOiubW_9Mp4sJorS-507" edge="1">
          <mxGeometry relative="1" as="geometry" />
        </mxCell>
        <mxCell id="tN0UlOiubW_9Mp4sJorS-509" style="edgeStyle=orthogonalEdgeStyle;rounded=0;orthogonalLoop=1;jettySize=auto;html=1;entryX=0.5;entryY=0;entryDx=0;entryDy=0;" parent="1" source="tN0UlOiubW_9Mp4sJorS-495" target="tN0UlOiubW_9Mp4sJorS-499" edge="1">
          <mxGeometry relative="1" as="geometry">
            <Array as="points">
              <mxPoint x="600" y="-320" />
              <mxPoint x="500" y="-320" />
            </Array>
          </mxGeometry>
        </mxCell>
        <mxCell id="tN0UlOiubW_9Mp4sJorS-510" style="edgeStyle=orthogonalEdgeStyle;rounded=0;orthogonalLoop=1;jettySize=auto;html=1;entryX=0.5;entryY=0;entryDx=0;entryDy=0;" parent="1" source="tN0UlOiubW_9Mp4sJorS-493" target="tN0UlOiubW_9Mp4sJorS-499" edge="1">
          <mxGeometry relative="1" as="geometry">
            <Array as="points">
              <mxPoint x="400" y="-320" />
              <mxPoint x="500" y="-320" />
            </Array>
          </mxGeometry>
        </mxCell>
        <mxCell id="tN0UlOiubW_9Mp4sJorS-511" style="edgeStyle=orthogonalEdgeStyle;rounded=0;orthogonalLoop=1;jettySize=auto;html=1;entryX=0.5;entryY=0;entryDx=0;entryDy=0;" parent="1" source="tN0UlOiubW_9Mp4sJorS-494" target="tN0UlOiubW_9Mp4sJorS-503" edge="1">
          <mxGeometry relative="1" as="geometry">
            <Array as="points">
              <mxPoint x="500" y="-200" />
            </Array>
          </mxGeometry>
        </mxCell>
        <mxCell id="tN0UlOiubW_9Mp4sJorS-513" style="edgeStyle=orthogonalEdgeStyle;rounded=0;orthogonalLoop=1;jettySize=auto;html=1;" parent="1" source="tN0UlOiubW_9Mp4sJorS-500" target="tN0UlOiubW_9Mp4sJorS-503" edge="1">
          <mxGeometry relative="1" as="geometry" />
        </mxCell>
        <mxCell id="tN0UlOiubW_9Mp4sJorS-520" value="" style="group" parent="1" vertex="1" connectable="0">
          <mxGeometry x="800" y="-140" width="120" height="70" as="geometry" />
        </mxCell>
        <mxCell id="tN0UlOiubW_9Mp4sJorS-516" value="CurrentUserObject" style="rounded=0;whiteSpace=wrap;html=1;" parent="tN0UlOiubW_9Mp4sJorS-520" vertex="1">
          <mxGeometry width="120" height="20" as="geometry" />
        </mxCell>
        <mxCell id="tN0UlOiubW_9Mp4sJorS-517" value="id" style="rounded=0;whiteSpace=wrap;html=1;align=left;" parent="tN0UlOiubW_9Mp4sJorS-520" vertex="1">
          <mxGeometry y="20" width="120" height="20" as="geometry" />
        </mxCell>
        <mxCell id="tN0UlOiubW_9Mp4sJorS-519" value="setUser()&lt;br&gt;getUser()" style="rounded=0;whiteSpace=wrap;html=1;align=left;" parent="tN0UlOiubW_9Mp4sJorS-520" vertex="1">
          <mxGeometry y="40" width="120" height="30" as="geometry" />
        </mxCell>
        <mxCell id="tN0UlOiubW_9Mp4sJorS-522" style="edgeStyle=orthogonalEdgeStyle;rounded=0;orthogonalLoop=1;jettySize=auto;html=1;entryX=0.5;entryY=0;entryDx=0;entryDy=0;startArrow=classic;startFill=1;" parent="1" source="tN0UlOiubW_9Mp4sJorS-521" target="tN0UlOiubW_9Mp4sJorS-516" edge="1">
          <mxGeometry relative="1" as="geometry" />
        </mxCell>
        <mxCell id="tN0UlOiubW_9Mp4sJorS-521" value="DataStore" style="shape=cylinder3;whiteSpace=wrap;html=1;boundedLbl=1;backgroundOutline=1;size=5.232543945312528;" parent="1" vertex="1">
          <mxGeometry x="820" y="-220" width="80" height="40" as="geometry" />
        </mxCell>
        <mxCell id="tN0UlOiubW_9Mp4sJorS-529" style="edgeStyle=orthogonalEdgeStyle;rounded=0;orthogonalLoop=1;jettySize=auto;html=1;entryX=0.5;entryY=1;entryDx=0;entryDy=0;" parent="1" source="tN0UlOiubW_9Mp4sJorS-56" target="tN0UlOiubW_9Mp4sJorS-519" edge="1">
          <mxGeometry relative="1" as="geometry">
            <Array as="points">
              <mxPoint x="1310" y="650" />
              <mxPoint x="1310" y="10" />
              <mxPoint x="860" y="10" />
            </Array>
          </mxGeometry>
        </mxCell>
      </root>
    </mxGraphModel>
  </diagram>
</mxfile>
